<?xml version="1.0" encoding="UTF-8"?>
<svg width="1200pt" height="1200pt" version="1.1" viewBox="0 0 1200 1200" xmlns="http://www.w3.org/2000/svg">
 <path d="m716.32 674.3-84.434-48.387c-9.3281-5.3438-15.082-15.281-15.082-26.039 0-10.746 5.7656-20.684 15.094-26.027l84.387-48.305-51.246-42.281c-6.9141-5.707-10.91-14.191-10.91-23.145 0-8.9531 3.9961-17.449 10.91-23.145l21.098-17.402h-273.35v-347.57c0-13.254-10.746-24-24-24h-126.43v14.668c0 16.57-13.43 30-30 30-16.57 0-30-13.43-30-30v-14.668h-126.43c-13.254 0-24 10.746-24 24v1056c0 13.254 10.746 24 24 24h126.43v-14.672c0-16.57 13.43-30 30-30 16.57 0 30 13.43 30 30v14.672h126.43c13.254 0 24-10.746 24-24v-347.57h273.43l-21.188-17.504c-6.9023-5.707-10.898-14.18-10.898-23.133s3.9961-17.438 10.898-23.133zm-453.96 325.57c0 16.57-13.43 30-30 30-16.57 0-30-13.43-30-30v-49.98c0-16.57 13.43-30 30-30 16.57 0 30 13.43 30 30zm0-187.44c0 16.57-13.43 30-30 30-16.57 0-30-13.43-30-30v-49.98c0-16.57 13.43-30 30-30 16.57 0 30 13.43 30 30zm0-187.44c0 16.57-13.43 30-30 30-16.57 0-30-13.43-30-30v-49.98c0-16.57 13.43-30 30-30 16.57 0 30 13.43 30 30zm0-187.44c0 16.57-13.43 30-30 30-16.57 0-30-13.43-30-30v-49.984c0-16.57 13.43-30 30-30 16.57 0 30 13.43 30 30zm0-187.44c0 16.57-13.43 30-30 30-16.57 0-30-13.43-30-30v-49.984c0-16.57 13.43-30 30-30 16.57 0 30 13.43 30 30zm131.61 379.89h-48c-16.57 0-30-13.43-30-30s13.43-30 30-30h48c16.57 0 30 13.43 30 30s-13.426 30-30 30zm180 0h-48c-16.57 0-30-13.43-30-30s13.43-30 30-30h48c16.57 0 30 13.43 30 30s-13.426 30-30 30zm453.34-125.79v327.12c29.941 24.035 49.156 60.887 49.156 102.27 0 72.43-58.719 131.15-131.15 131.15-72.43 0-131.15-58.719-131.15-131.15 0-41.383 19.215-78.234 49.156-102.27l-0.003907-327.18c-62.445-27.777-109-86.398-118.73-156.21-12.895-92.449 36.684-174.79 112.5-211.49 7.9453-3.8477 17.219 2.0703 17.219 10.898v134.59c0 6.6289 5.3711 12 12 12h118c6.6289 0 12-5.3711 12-12v-134.58c0-8.8438 9.2969-14.746 17.258-10.891 67.727 32.809 114.5 102.03 114.5 182.33 0 82.785-49.652 153.92-120.77 185.42z" fill="#fff"/>
</svg>
